/* XPM */
static char *_daaa7db9ef2499ea0f5655ea909e2eeNJnvk2yKtu45l9HL[] = {
/* columns rows colors chars-per-pixel */
"64 64 19 1 ",
"  c #700000",
". c #7C0000",
"X c gray44",
"o c #7C7C7C",
"O c #880000",
"+ c #980000",
"@ c #A40000",
"# c #A80000",
"$ c #B00000",
"% c #BC0000",
"& c #C80000",
"* c #D40000",
"= c #E00000",
"- c gray55",
"; c #989898",
": c gray66",
"> c #B4B4B4",
", c #C0C0C0",
"< c #D0D0D0",
/* pixels */
"<<<<<<<<<<<<<<<<<<<<<<<<<<<<<<<;===============================+",
"<>;;:>>;;;;;::::::;;-->,:;;--::X=.@%&&$.%%$$+$@+O$$%$%%&$%%&#$% ",
"<:;;:>;-;-;;;:>:;:;;-o;:;::;;::X=OO%%&#.%%&$@$#O@@+@#$&%%#$$#@% ",
"<;:>,::-;-;:::::::;;;;::;;>:::-X=@+#%%@O#%%#$#@O#@@+@&&##$$+%%% ",
"<-;>,>:;::;:;:;:;;::>-::-;;;:;:X=++@$$#$&$#@$++++O.++&*#@&&&&$$ ",
"<-;::>:;:;;:;:>:::;:;;;;-;;;--;X=$#+$%%&&$++@@#++O+##%%$@$%$@@% ",
"<-;:;::::;-::::::;;;-;;:;;-;o-:X=$+++%$&&&#@##%#$$%$$#%$+%%%#@$ ",
"<;;;;::::;;:::::::;;;:;;:;;;-::X=@.+$%$&$+#%$$$$@#$$%#+@O%%&$@# ",
"<;::;::;::>>::;;;:;;::;;;----:;X=#+O+#%$@@#&+@+$#@@@%@@@+$#%$#$ ",
"<;;;;::;:;:>::;-;:;-;;-;;-oo;;-X=+#@@+%#$*&&+++%%#@O+@.+#@%&$#% ",
"<;---;::;-;--;;-:;-;;;:;;--o--oX=@++$##+$$#$@#%&&%#O++O+$$&%&&& ",
"<:;::>:;-------;;:-::;:;;;;-;;;X=OO#%+@@$&#+O+&*%%%#+O+O$&**&&* ",
"<;:::::;;;-o-;;;;:;;;;::;--;;;;X=#$@&$O$$&&#O%%&$$$+OOO#***&&%% ",
"<;;;;:::;::;;;:::>:;;-:;--o;oo;X=&%O@%O+$$$$%$O@@&$@@&$&**&%$%$ ",
"<:;;-;:>::>:;::::::;;;;:;--;-o-X=&#O@%@$&%%&@$+$$&@+$&%&&%%%%$# ",
"<:-:;;:::::;::>>;;;--;;;-;;:--;X=$#+%####%&$+$#%&%+$$%%$$@$&&@O ",
"<;-;;:>:;:::::::;:;;--;;-;;::;:X=$@+%#&%$%%$$&%&$&%$#&&$@#%%+.+ ",
"<;;-;:>::;;:::::::;;;;--;;;;::;X=@+&&$#+@+@%&***&&&$#%%$#$$$$O# ",
"<;;-;-;::;;:;;::;:;--;;;---;:;-X=%$&&#++##O%*&$&$%&%##%##$&%#+$ ",
"<;;o;o---;;;::::;;;;---:;-o-;-;X=%&$#%@@$+#%*%$%%$&$@#&&&%%&$#% ",
"<:;-;--;;;;;:::----;;-o;-;o-;;;X=&%$@%#+#+%%%@@&&$$+@$%&&&%%$$% ",
"<;:;;;;:;::;:;;--o;;--;:;-;;---X=&$$$$@#$%%$%@+$$#$%@&&*&&&&&%% ",
"<:;-;::>:;;-:;;-oo-;----;;-----X=O+$&&$##$%O+$@#$@#$O$%%&$$**%% ",
"<;-o-;:;;;--;;-:--o-----:;---;:X=O%&%%#%$%#+#$$%$$%#+@$%$%&%$%& ",
"<--::::--;-----;;;---oo;:;;;-;;X=+##$#+%&%%$@$@#@@$#+#%&%$%%%## ",
"<--;;---o--;---;::-:;-;;;:::;;-X=$$%@$#@%+#+++O+@@@@$@O%%&#$%#@ ",
"<;;;;oo-oX;;---;::;::;::;;;::;;X=O@$%&+O@O+@OOO++###$##%$%##### ",
"<;;;::;;o-;----;;-ooo;:-;-;:;;;X=O@$&#++@+@++..O+$@#@%$$$#+$##@ ",
"<--;::;oo-;ooo-;;;-oo;:---;::;;X=@@#$++%$%$@%++###@&&%$%&$$%++@ ",
"<;;-;;;o-;;;---------;;---;;:-;X=$####$*&%+$%@%$@##%%%&&&$%%+#% ",
"<;;;;;-o;;;;;-----;--;;;;;----;X=$$$$&$$%%$$$+$$$&%$$#$%%$#@$$$ ",
";XXXXXXXXXXXXXXXXXXXXXXXXXXXXXXX+                               ",
"===============================+<<<<<<<<<<<<<<<<<<<<<<<<<<<<<<<;",
"=+#+$$#$%$%#+O+++$%@@+O+@++#$$# <;;:;;;:;;;;;;:--;;--;-;:;;;;;;X",
"=%##%@+$%$$#%@++$#$++O+$$+@%@@# <:;:::;::;;:::;--;--;:;-;;-o-;;X",
"=$O++#%$$$&%$+@#@O#%+O+#$#@$$@# <;;::;;;:;-;;;:;-;---;;;:;----:X",
"=+.OO#$+@$%%$O+$$O%$++++$%$$$#$ <;-;:;;;;-o-;;:;;;-;-o---;;;-o;X",
"=@.O+@$+O$%$%&%#%$&&$$%&&%&@O#% <--;:;;-;;-;;:;;;;-;--;:::;;-o-X",
"=%O.O+$OO#%@#$$@@%%&%%%$%%#+@%$ <;;-:::;;::;-;:>::;;:::::;--oooX",
"=#OOOO++@##+@+%$%#@++#++#%$@+++ <;:;;;::;:;;;;::::;:::-:-;;-oo-X",
"=O+++. @@%$#%&&$@##++O+@+@#OOO+ <--;:;::;;:::>,::::>;;-:::;;;;:X",
"=@#...#%O%$%%&&%@#@@#++#O++++$+ <-;;;:;:>:;>>:::::;:;-;;>::::::X",
"=%$#@@&$+%%$#$%$@@%%#$@@+OO+@#% <;;oo;::::;:;;;::;;::--;;;;::>:X",
"=@#$+O#&$$##$##+O@@+$$%%@+O+@## <;;-;;:>:;;;-;::;-o-;--;:::::;;X",
"=@$#@+$&#$#$$@+$@#@++$&%#++.+@@ <;-;;-;::;::::::;---;----;:::::X",
"=#$#@+%&@@$@+##%%$$++#$%$#++++@ <--;;;;;;;;;;--;;;;;;;;---;-;>;X",
"=#$@@+@++@#@##$#%%#O+@$$$@+++@@ <;-;;;-;;-::;-o-;;-;;;::;;---::X",
"=#$@@@@O$#OO$&&$%%$#++#&%@+@+@@ <-----o-;;>::;--;::;;:::;;;;-::X",
"=OO#++@#%$++$&&@%$&$$#$$##@$OO+ <;;;;;--;-;;:;;;;:>-o;;::;;:-;-X",
"=OO@$$@&%%%#$%%##%&%$$####@+.+$ <:;;-:-o;;-;::;::::;-;;:;;::---X",
"=O++%&$&$#&%&%%%%$$@@+@###@+@%& <;;--;-o-;;::::::;;;;;-;-;---ooX",
"=O+%$$#%#@$$%%&%$++@%$+@+++#$%$ <;;;:;-;;;;:::::::;;;;--;;;;;ooX",
"= O&**&%#%%%%$$%#O++##$%$#O#$@@ <;;:::;-;:;;;:::-;-;-o-;:;;;---X",
"=.$#$%&$$##$%$@%###@$%$%%$+%$$@ <;::;;;--::::::;------;:;;;;;;-X",
"=%%O@@%%%#+#$$$&$$$$$%%$$%@%$$$ <;:;;::--;::;::;;;;::;;;;;;::-;X",
"=*&$$O@%$OO@$#$@$$#$$&%$%&#@%$% <;;--;:;;;-;::;--;;::-;;:::::-;X",
"=&%O+@#@O+@$$%@+$$#$%%%#%*%%$+# <-;--o:;;;;;:;;;;::;;---;:;;:;-X",
"=$&++#+###@#+#@+$#@%%@$$%%$##$$ <-;;oo;;--;:;;-;::::;---oo-;;;;X",
"=%%%%%$&$+@+.@@&&$@%%@$#++O#$## <--;;o-;;;;::;-;--;;;-;--o;;--;X",
"=$%#@%%$$@+++$@%%&#&%+#$$+#$$@@ <;;;;oo;:::;;-o--o----;;-o;;--oX",
"=$%$%&%+#+##O%%+$&&*%$O@#O+@%#$ <::;;-;;::::;;-o-Xo--;;;-;--o--X",
"=#%&+#@@+O$#O@@@%&%%#$+$+++%&%+ <:;;:-;::::::;;---;;-;;;-;;;--;X",
"=$%$+$%$OO++@+O$%%%#+#&#.O%&%OO <-o---;:;:;;;::;;;:;--;::::;;;-X",
"+                               ;XXXXXXXXXXXXXXXXXXXXXXXXXXXXXXX"
};
