/* XPM */
static char *_08d222d49e64ffae51e57ee705256b9AlaynmBiRQNOUDVG[] = {
/* columns rows colors chars-per-pixel */
"64 64 26 1 ",
"  c black",
". c gray11",
"X c #282828",
"o c #2C2C2C",
"O c gray19",
"+ c #343434",
"@ c gray22",
"# c gray25",
"$ c #484848",
"% c #4C4C4C",
"& c gray33",
"* c gray36",
"= c #646464",
"- c gray44",
"; c #7C7C7C",
": c #D40000",
"> c #FC0000",
", c gray55",
"< c #989898",
"1 c gray66",
"2 c #B4B4B4",
"3 c #C0C0C0",
"4 c #D0D0D0",
"5 c gainsboro",
"6 c #ECECEC",
"7 c gray99",
/* pixels */
"................................................................",
"$$$$$$$$$$$$%$%$$$$$$$$%$$$$$$$$$$%$$$$$$$$$$$$$$%$%$$$$$$$$%$$$",
"$$$$%$$$$$$$$%$%$$$$$$$$%$$$$$$$$$$%$$$$$%$$$$$$$$%$%$$$$$$$$%$$",
"$$$%$%$%$$$%$$%$$$$$%$$$$%$$$$$%$$$$%$$$%$%$%$$$%$$%$$$$$%$$$$%$",
"$$$$$$%$%$%$$$$$$$$$%%$$%$$$$$$%%$$%$$$$$$$%$%$%$$$$$$$$$%%$$%$$",
"@$%$$$@@@@@@@@@@@@@@@@@@@@@@@@@@@@@@@@@@@@@@@@@@@@@@@@@@@@%$$$%@",
"=$$%$$@::::::::::::::::::::::::::::::::::::::::::::::::::=$$$%%@",
"=$%$$$@:>>>>>>>>>>>>>>>>>>>>>>>>>>>>>>>>>>>>>>>>>>>>>>>>>=%$$$$@",
"=%$$$%@:>>>>>>>>>>>>>>>>>>>>>>>>>>>>>>>>>>>>>>>>>>>>>>>>>=$$$$$@",
"=$%$$$@:>>>>>>>>>>============================>>>>>>>>>>>=$$$$$@",
"=%$$$$@:>>>>>>>>>>-67777777777777777777777776->>>>>>>>>>>=$$$$$@",
"=$$$$$@:>>>>>>>>>>><77*++++++++++++++++++*77<>>>>>>>>>>>>=%$%$$@",
"=%$$$$@:>>>>>>>>>>>,571                  175,>>>>>>>>>>>>=$%$%$@",
"=$%$$$@:>>>>>>>>>>>>=77&                &77=>>>>>>>>>>>>>=$$%$$@",
"=$$$%%@:>>>>>>>>>>>>>175                571>>>>>>>>>>>>>>=%%$$$@",
"=$$%$$@:>>>>>>>>>>>>>;67*              *76;>>>>>>>>>>>>>>=$$$%$@",
"=$%$%$@:>>>>>>>>>>>>>><74              47<>>>>>>>>>>>>>>>=$$$$%@",
"=$$%$%@:>>>>>>>>>>>>>>-67o            o76->>>>>>>>>>>>>>>=$$$$$@",
"=$$$$$@:>=->>>>>>>>>>>>27,            ,72>>>>>>>>>>>>-=>>=$$$$%@",
"=$$$$$@:>=6<,>>>>>>>>>>,73            37,>>>>>>>>>>,<6=>>=$$$%$@",
"=$$$$$@:>=775=>>>>>>>>>-76.          .67->>>>>>>>>=577=>>=%$$$%@",
"=$$$$%@:>=77771;>>>>>>>=77#          #77=>>>>>>>;17777=>>=$$$%$@",
"=%%$$$@:>=7*1776<->>>>>=77=          =77=>>>>>-<6771*7=>>=$$%$$@",
"=%$$$%@:>=7+ &57762,-==*77;          ;77*==-,26775& +7=>>=$$$%$@",
"=$$$$$@:>=7+   *4777777777,          ,7777777774*   +7=>>=$$$$$@",
"=$$$%%@:>=7+     o,3677777<          <7777763,o     +7=>>=%$$$$@",
"=%$%$$@:>=7+        .#=;,<*    -@    *<,;=#.        +7=>>=$$$$$@",
"=$%$$$@:>=7+                  -73.                  +7=>>=$$$%$@",
"=$$$$$@:>=7+                 -75O =                 +7=>>=$$%$%@",
"=$$$$%@:>=7+                =76+ 37-                +7=>>=$%$$$@",
"=$$$$$@:>=7+               . 37-3767-               +7=>>=$$$$$@",
"=$$$$$@:>=7+              @3O 367-+57-              +7=>>=%$$$%@",
"=$$$$$@:>=7+              -75+-763 O3@              +7=>>=$$$%%@",
"=%%$$$@:>=7+               -7673-73 .               +7=>>=$$$$$@",
"=%$$$%@:>=7+                -73 +67=                +7=>>=$$$$$@",
"=$$$$$@:>=7+                 = O57-                 +7=>>=$$$$$@",
"=$$$%$@:>=7+                  .37-                  +7=>>=%$$$$@",
"=%$%$$@:>=7+        .#=;,<*    @-    *<,;=#.        +7=>>=$$$$$@",
"=$%$$$@:>=7+     o,3677777<          <7777763,o     +7=>>=$$$%$@",
"=$$$$$@:>=7+   *4777777777,          ,7777777774*   +7=>>=$$%$%@",
"=$$$$%@:>=7+ &57762,-==*77;          ;77*==-,26775& +7=>>=%%$$$@",
"$$$$$$@:>=7*1776<->>>>>=77=          =77=>>>>>-<6771*7=>>=$$$$$$",
"$$%$$$@:>=77771;>>>>>>>=77#          #77=>>>>>>>;17777=>>=%$$$%$",
"$$$%$$@:>=775=>>>>>>>>>-76.          .67->>>>>>>>>=577=>>=$$$%%$",
"$$%$$$@:>=6<,>>>>>>>>>>,73            37,>>>>>>>>>>,<6=>>=%$$$$$",
"$%$$$%@:>=->>>>>>>>>>>>27,            ,72>>>>>>>>>>>>-=>>=$$$$$$",
".$%$$$@:>>>>>>>>>>>>>>-67o            o76->>>>>>>>>>>>>>>=$$$$$.",
"&%$$$$@:>>>>>>>>>>>>>><74              47<>>>>>>>>>>>>>>>=$$$$$.",
"&$$$$$@:>>>>>>>>>>>>>;67*              *76;>>>>>>>>>>>>>>=%$%$$.",
"&%$$$$@:>>>>>>>>>>>>>175                571>>>>>>>>>>>>>>=$%$%$.",
"&$%$$$@:>>>>>>>>>>>>=77&                &77=>>>>>>>>>>>>>=$$%$$.",
"&$$$%%@:>>>>>>>>>>>,571                  175,>>>>>>>>>>>>=%%$$$.",
"&$$%$$@:>>>>>>>>>>><77*++++++++++++++++++*77<>>>>>>>>>>>>=$$$%$.",
"&$%$%$@:>>>>>>>>>>-67777777777777777777777776->>>>>>>>>>>=$$$$%.",
"&$$%$%@:>>>>>>>>>>============================>>>>>>>>>>>=$$$$$.",
"&$$$$$@:>>>>>>>>>>>>>>>>>>>>>>>>>>>>>>>>>>>>>>>>>>>>>>>>>=$$$$%.",
"&$$$$$@:>>>>>>>>>>>>>>>>>>>>>>>>>>>>>>>>>>>>>>>>>>>>>>>>>=$$$%$.",
"&$$$$$@*==================================================%$$$%.",
"&$$$$%$$$%$%$%$$$$$$$$$%%$$%$$$$$$%%$$%$$$$$$$%$%$%$$$$$$$$$$%$.",
"&%%$$$%$%$%$$$%$$%$$$$$%$$$$%$$$$$%$$$$%$$$%$%$%$$$%$$%$$$$$%$$.",
"&%$$$%$%$$$$$$$$%$%$$$$$$$$%$$$$$$$$$$%$$$$$%$$$$$$$$%$%$$$$$%$.",
"&$$$$$$$$%$$$$$%$$%$$$%$%$%$$$%$$$$%$$$$$%$$$$%$$$$$%$$%$$$$$$$.",
"@...............................................................",
"XXXXXXXXXXXXXXXXXXXXXXXXXXXXXXXXXXXXXXXXXXXXXXXXXXXXXXXXXXXXXXXX"
};
