/* XPM */
static char *_61c80d5351e4c5f8d1aed63c099486fe55NrptymypZggaz[] = {
/* columns rows colors chars-per-pixel */
"64 64 28 1 ",
"  c black",
". c #181818",
"X c gray11",
"o c #28200C",
"O c #2C2C2C",
"+ c #343434",
"@ c #400000",
"# c #4C0000",
"$ c #580000",
"% c #640000",
"& c #700000",
"* c #7C0000",
"= c #404000",
"- c #585400",
"; c #706C00",
": c gray25",
"> c #484848",
", c #880000",
"< c #980000",
"1 c #A80000",
"2 c #FC4040",
"3 c #FC5C5C",
"4 c #848400",
"5 c #9C9C00",
"6 c #B4AC00",
"7 c #FCB400",
"8 c #CCC400",
"9 c #E4D800",
/* pixels */
"                                                                ",
"OOOOOOOOOOOO+O+OOOOOOOO+OOOOOOOOOO+OOOOOOOOOOOOOO+O+OOOOOOOO+OOO",
"OOOO+OOOOOOOO+O+OOOOOOOO+OOOOOOOOOO+OOOOO+OOOOOOOO+O+OOOOOOOO+OO",
"OOO+O+O+OOO+OO+OOOOO+OOOO+OOOOO+OOOO+OOO+O+O+OOO+OO+OOOOO+OOOO+O",
"OOOOOO+O+O+OOOOOOOOO++OO+OOOOOO++OO+OOOOOOO+O+O+OOOOOOOOO++OO+OO",
"XXXXXXXXXXXXXXXXXXXXXXXXXXXXXXXXXXXXXXXXXXXXXXXXXXXXXXXXXXXXXXXX",
"###$$$$########$$$#$##$######$$$$$$#######$$$$$$$$$$$$$$$$$$$$$#",
"*&&&**,,**&**&&&***,*&&&&&&&&&&&&&&*,,**&&&%%&&&&&&&****,,,*****",
"&&&***,,*&$$$$$$$$$$$$$$$$$$$$$$$$$$$$$$$$$$$$$$$$$$$&*,,,,*&&*&",
"&&****,,*&$..........................................2,,,,,*&%&&",
"&**,**,,**$..........................................2,,,***&%%&",
"****,,***&$..................o=--=...................2*,,,**&%%%",
"*&**,,**&&$.................o58o88=..................2,,,,***&&&",
"&&&****&&&$.......588886....=68887-.....688886.......2,,,,*****&",
"&&&**&&&&&$......4777777-...-.6888-....4777777-......2,,,,*****&",
"&&&&&&&&&&$.....4775==o77-....o877=...477o=o577-.....2,,,,,****&",
"&&&&&*&***$....4775=;87o77-...o877...477o78;o577-....2*,,,,**&&&",
"*&&&&&&**,$...=77o=;=7=7o77-.o=787o.477o7o7o;=o77=...2**,**&&&&&",
"&&&&&****,$....oo4o87=8=7o77=48o4o7=77o7o8o85o4oo....2&&****&&&*",
"*&&&&***,,$....o76o7=8=8=7o=o8o8o88o=o7o8o8=4o87o....2&&&&***&&*",
"****,,,,,,$....676o=o5=8=87o7o7o8=o7o78=8=5o=o876....2&%&&****&&",
"***,,,,,,,$....876o84o4=8=o7o78o757o7o=8o4o46o876....2*&&&&&**&*",
",,,,,,,,,,$....876o86oo4=65o7=o784o7o44o4oo86o876....2*&&&&&*,**",
",,,,,,<<<<$....876o86o;oo=o7=87=7o8=7o=o=;o86o876....2*&&&&&***,",
",,,,,<<<<<$....876o86o84o;=o=487o84=oo;o46o86o876....2*&&&&&**,,",
",,,,,,<<<<$....876o86o86o6..o=9o;oo=..8o86o86o876....2&*&****,,,",
",,,,,,,,<<$....876o86o86o6o=88=75o8;=o8o86o86o876....2******,,,,",
",,,,***,,,$....876o86o86o6o=88=95o85=o8o86o86o876....2**,,,,,,,,",
",,,****,*,$....876o86o86o6o=88=85o85=o8o86o86o876....2,,,<,,,,,*",
"**,****&&*$....87o;86o86o6o=;o6=54o5=o8o86o86;o76....2<,<<<,,,,,",
"******&&&&$....oo6o86o86o6o=o88=5o8o=o8o86o86o8oo....2<<<<<<,,,,",
"**&&*&&&&&$....876o86o86o6.=985o=88;=.8o86o86o876....2<<<<,,,,,,",
"*&%%&&&&&*$....876o86o86o6.oo8=85o85=.8o86o86o876....2<<<,,,,,,*",
"*&&%%&&&**$....876o86o86o6..o=885;o5=.8o86o86o876....2,,,,*,***&",
"&&&&%&****$....876o86o86o6..=898588o=.8o86o86o876....2,*******&&",
"&&&&&&&***$....876o86o86o6..=8o85o85=.8o86o86o876....2**&**&&&&&",
"&&&&&&&&**$....876o86o86o6..=8=85o8oo.8o86o86o876....2**&&&&&&&&",
"&&*&&&%&&&$....876o86o86o6..==9=oo8o..8o86o86o876....2*&&&&&%&&&",
"**&&&&%%&*$....876o86o86o6..=96=oo6=..8o86o86o876....2*&*&&&&&&&",
"**&&&&&%%&$....876o86o86o4.=96=<*=96=.4o86o86o876....2&*****&*&&",
">>>>>>O&%%$....876o86o86o..=6=<*@.=96=.o86o86o876....2***>>>>>>>",
"OO+OO+X&%%$....876o86o84...==<*@.@*==@..46o86o876....2,,*>OOOOOO",
"O+OOOOX&&%$....876o86o4...@.@1<*@1<*<*@..4o86o876....2,,,>+O+OOO",
"OO+OOOX&&&$....876o84....@*@.@1<1<*@1<*@...46o876....2,,<>O+OOOO",
"OOO+OOX*&&$....876o4....@1<*@.@1<*@.@1<*@...4o876....2*,<>OOOOOO",
"OOO+O+X***$....874.......@1<*@1<1<*@.@1@......476....2**,>OOOO+O",
" .OO+OX***$....84.........@1<1<*@1<*@.@........46....2&&*>O+O+  ",
" >O+O+X***$....4...........@1<*@.@1<*@..........4....2&&&>+OOO  ",
".>OO+OX,,*$.................@1@.@1<*@................2&%&>OOOO .",
".>OOOOX,,,$..................@.@1<*@.................2*&&>OOO+ .",
".>OOOOX,,,$...................@1<*@..................2*&&>OO++ .",
".>OOOOX<,,$....................@<@...................2*&&>OOOO .",
".>OOOOX<<<$..........................................2*&&>OOOO .",
".>++OOX<<<$..........................................2&*&>OOOO .",
".>+OOOX,<<$..........................................2***>OOOO .",
".>OOOOX,,,&3333333333333333333333333333333333333333333**,>OOOO .",
".>OOO+X,*,,,**&******,***&&&%&%&&&&&&**&&&&&*********,,,,>OO+O .",
".>+O+OX:>>>>>>>>>>>>>>>>>>>>>>>>>>>>>>>>>>>>>>>>>>>>>>>>>>O+O+ .",
".>O+OOOOO+O+O+OOOOOOOOO++OO+OOOOOO++OO+OOOOOOO+O+O+OOOOOOO+OOO .",
".>OOOO+O+O+OOO+OO+OOOOO+OOOO+OOOOO+OOOO+OOO+O+O+OOO+OO+OOOOOOO .",
".>OOOOO+OOOOOOOO+O+OOOOOOOO+OOOOOOOOOO+OOOOO+OOOOOOOO+O+OOOOO+ .",
".>OOOOOOO+OOOOO+OO+OOO+O+O+OOO+OOOO+OOOOO+OOOO+OOOOO+OO+OOOOOO .",
".X                                                             .",
".                                                               "
};
