/* XPM */
static char *_45affa52ab742068ec5a8a4bff12f88mkbjSJPRwGfDdByz[] = {
/* columns rows colors chars-per-pixel */
"64 64 38 1 ",
"  c gray11",
". c #28200C",
"X c #282828",
"o c #2C2C2C",
"O c gray22",
"+ c #400000",
"@ c #4C0000",
"# c #403018",
"$ c #483818",
"% c #404000",
"& c #585400",
"* c #706C00",
"= c #000064",
"- c #000070",
"; c #00007C",
": c #484848",
"> c #4C4C4C",
", c gray36",
"< c #646464",
"1 c #980000",
"2 c #B00000",
"3 c #C80000",
"4 c #848400",
"5 c #9C9C00",
"6 c #B4AC00",
"7 c #FCB400",
"8 c #CCC400",
"9 c #FCC008",
"0 c #E4D800",
"q c #FCF400",
"w c #FCD424",
"e c #FCE034",
"r c #000088",
"t c #000098",
"y c #0000A4",
"u c #0000B0",
"i c #5C60FC",
"p c #7C80FC",
/* pixels */
"                                                                ",
"::::::::::::>:>::::::::>::::::::::>::::::::::::::>:>::::::::>:::",
"::::>::::::::>:>::::::::>::::::::::>:::::>::::::::>:>::::::::>::",
":::>:>:>:::>::>:::::>::::>:::::>::::>:::>:>:>:::>::>:::::>::::>:",
"::::::>:>:>:::::::::>>::>::::::>>::>:::::::>:>:>:::::::::>>::>::",
"OOOOOOOOOOOOOOOOOOOOOOOOOOOOOOOOOOOOOOOOOOOOOOOOOOOOOOOOOOOOOOOO",
"===----========---=-==-======------=======---------------------=",
"trrrttyyttrttrrrtttytrrrrrrrrrrrrrrtyyttrrr;;rrrrrrrttttyyyttttt",
"rrrtttyytr-------------------------------------------rtyyyytrrtr",
"rrttttyytr-ooooooooooooooooooooooooooooooooooooooooooiyyyyytr;rr",
"rttyttyytt-ooooooooooooooooooooooooooooooooooooooooooiyyytttr;;r",
"ttttyytttr-oooooooooooooooooo%&**&.ooooooooooooooooooityyyttr;;;",
"trttyyttrr-ooooooooooooooooo%6e#we&ooooooooooooooooooiyyyytttrrr",
"rrrttttrrr-ooooooo6wwww8oooo&8ewe7*ooooo8wwww8oooooooiyyyytttttr",
"rrrttrrrrr-oooooo5799997*ooo*o8ewe*oooo5799997*ooooooiyyyytttttr",
"rrrrrrrrrr-ooooo5796&&%97*oooo%w97&ooo579%&%697*oooooiyyyyyttttr",
"rrrrrtrttt-oooo5796&4w7%97*ooo%w97ooo579%7w4%697*ooooityyyyttrrr",
"trrrrrrtty-ooo&79%&4&7&7%97*o%&9w7%o579%7%7%4&%97&oooittyttrrrrr",
"rrrrrtttty-oooo%%5%w7&w&7%97&5w%5%7&79%7%w%e6%5%%ooooirrttttrrrt",
"trrrrtttyy-oooo%98%7&w&w&7%&%w%e%ew%&%7%w%e&5%e9%ooooirrrrtttrrt",
"ttttyyyyyy-oooo898%&%6&e&w7%7%7%e&%7%7w&e&6%&%e98ooooir;rrttttrr",
"tttyyyyyyy-ooooe98%e5$5&e&%7%7e%767%7%&e%5%58%e98ooooitrrrrrttrt",
"yyyyyyyyyy-ooooe98%e8%%5&86%7&%7e5%7$55%5%%e8%e98ooooitrrrrrtytt",
"yyyyyyuuuu-ooooe98%e8%4%%&%7&e7&7%e&7%&%&4%e8%e98ooooitrrrrrttty",
"yyyyyuuuuu-ooooe98%e8%e5%4&%&5e7%e5&%%4%58%e8%e98ooooitrrrrrttyy",
"yyyyyyuuuu-ooooe98%e8%e8%8oo%&q%4%%&ooe%e8%e8%e98ooooirtrttttyyy",
"yyyyyyyyuu-ooooe98%e8%e8%8%&e0&76%04&%e%e8%e8%e98ooooittttttyyyy",
"yyyytttyyy-ooooe98%e8%e8%8%&e0&q6%06&%e%e8%e8%e98ooooittyyyyyyyy",
"yyyttttyty-ooooe98%e8%e8%8%&e0&e6%06&%e%e8%e8%e98ooooiyyyuyyyyyt",
"ttyttttrrt-ooooe9%4e8%e8%8%&4%8&65%6&%e%e8%e84%98ooooiuyuuuyyyyy",
"ttttttrrrr-oooo%%8%e8%e8%8%&%0e&6%0%&%e%e8%e8%e%%ooooiuuuuuuyyyy",
"ttrrtrrrrr-ooooe98%e8%e8%8o&q06%&e04&oe%e8%e8%e98ooooiuuuuyyyyyy",
"tr;;rrrrrt-ooooe98%e8%e8%8o%%0&06%06&oe%e8%e8%e98ooooiuuuyyyyyyt",
"trr;;rrrtt-ooooe98%e8%e8%8oo%&e064%6&oe%e8%e8%e98ooooiyyyytytttr",
"rrrr;rtttt-ooooe98%e8%e8%8oo&0qe6e0%&oe%e8%e8%e98ooooiytttttttrr",
"rrrrrrrttt-ooooe98%e8%e8%8oo&0%06%06&oe%e8%e8%e98ooooittrttrrrrr",
"rrrrrrrrtt-ooooe98%e8%e8%8oo&0&06%0%%oe%e8%e8%e98ooooittrrrrrrrr",
"rrtrrr;rrr-ooooe98%e8%e8%8oo&&q&%%0%ooe%e8%e8%e98ooooitrrrrr;rrr",
"ttrrrr;;rt-ooooe98%e8%e8%8oo&q8&%%8&ooe%e8%e8%e98ooooitrtrrrrrrr",
"ttrrrrr;;r-ooooe98%e8%e8%5o&q8&21&q8&o5%e8%e8%e98ooooirtttttrtrr",
"<<<<<<:r;;-ooooe98%e8%e8%oo&8&21+o&q8&o%e8%e8%e98ooooittt<<<<<<<",
"::>::>Or;;-ooooe98%e8%e5ooo&&21+o@1&&+oo58%e8%e98ooooiyyt<::::::",
":>::::Orr;-ooooe98%e8%5ooo+o@321@32121+oo5%e8%e98ooooiyyy<>:>:::",
"::>:::Orrr-ooooe98%e5oooo@1+o@32321@321+ooo58%e98ooooiyyu<:>::::",
":::>::Otrr-ooooe98%5oooo+321+o@321+o@321+ooo5%e98ooooityu<::::::",
":::>:>Ottt-ooooe95ooooooo@321+32321+o@3+oooooo598ooooitty<::::>:",
" o::>:Ottt-ooooe5ooooooooo@32321+321+o+oooooooo58ooooirrt<:>:>  ",
"X<:>:>Ottt-oooo5ooooooooooo@321+o@321+oooooooooo5ooooirrr<>::: X",
"o<::>:Oyyt-ooooooooooooooooo@3+o@321+ooooooooooooooooir;r<:::: o",
"o<::::Oyyy-oooooooooooooooooo+o@321+oooooooooooooooooitrr<:::> o",
"o<::::Oyyy-ooooooooooooooooooo+321+ooooooooooooooooooitrr<::>> o",
"o<::::Ouyy-oooooooooooooooooooo@2+oooooooooooooooooooitrr<:::: o",
"o<::::Ouuu-ooooooooooooooooooooo+ooooooooooooooooooooitrr<:::: o",
"o<>>::Ouuu-ooooooooooooooooooooooooooooooooooooooooooirtr<:::: o",
"o<>:::Oyuu-ooooooooooooooooooooooooooooooooooooooooooittt<:::: o",
"o<::::Oyyyrppppppppppppppppppppppppppppppppppppppppppptty<:::: o",
"o<:::>Oytyyyttrttttttytttrrr;r;rrrrrrttrrrrrtttttttttyyyy<::>: o",
"o<>:>:O,<<<<<<<<<<<<<<<<<<<<<<<<<<<<<<<<<<<<<<<<<<<<<<<<<<:>:> o",
"o<:>:::::>:>:>:::::::::>>::>::::::>>::>:::::::>:>:>:::::::>::: o",
"o<::::>:>:>:::>::>:::::>::::>:::::>::::>:::>:>:>:::>::>::::::: o",
"o<:::::>::::::::>:>::::::::>::::::::::>:::::>::::::::>:>:::::> o",
"o<:::::::>:::::>::>:::>:>:>:::>::::>:::::>::::>:::::>::>:::::: o",
"oO                                                             o",
"oXXXXXXXXXXXXXXXXXXXXXXXXXXXXXXXXXXXXXXXXXXXXXXXXXXXXXXXXXXXXXXX"
};
